<svg xmlns="http://www.w3.org/2000/svg" xmlns:xlink="http://www.w3.org/1999/xlink" width="1920" height="1080" viewBox="0 0 1920 1080">
  <defs>
    <clipPath id="clip-Register">
      <rect width="1920" height="1080"/>
    </clipPath>
  </defs>
  <g id="Register" clip-path="url(#clip-Register)">
    <rect width="1920" height="1080" fill="rgba(255,90,118,0.92)"/>
    <circle id="Ellipse_1" data-name="Ellipse 1" cx="165.5" cy="165.5" r="165.5" transform="translate(-83 -64)" fill="#f30029"/>
    <circle id="Ellipse_2" data-name="Ellipse 2" cx="331" cy="331" r="331" transform="translate(-273 623)" fill="#f30029"/>
    <circle id="Ellipse_3" data-name="Ellipse 3" cx="19" cy="19" r="19" transform="translate(277 291)" fill="#f30029"/>
    <circle id="Ellipse_4" data-name="Ellipse 4" cx="16" cy="16" r="16" transform="translate(108 401)" fill="#f30029"/>
    <circle id="Ellipse_5" data-name="Ellipse 5" cx="12.5" cy="12.5" r="12.5" transform="translate(438 446)" fill="#f30029"/>
    <rect id="Rectangle_1" data-name="Rectangle 1" width="309" height="206" rx="103" transform="translate(1742 -52)" fill="#f30029"/>
    <circle id="Ellipse_6" data-name="Ellipse 6" cx="51" cy="51" r="51" transform="translate(1526 689)" fill="#f30029"/>
    <circle id="Ellipse_7" data-name="Ellipse 7" cx="23" cy="23" r="23" transform="translate(1582 868)" fill="#f30029"/>
    <circle id="Ellipse_8" data-name="Ellipse 8" cx="30.5" cy="30.5" r="30.5" transform="translate(1423 776)" fill="#f30029"/>
    <circle id="Ellipse_9" data-name="Ellipse 9" cx="5.5" cy="5.5" r="5.5" transform="translate(1861 1039)" fill="#f30029"/>
    <circle id="Ellipse_10" data-name="Ellipse 10" cx="21" cy="21" r="21" transform="translate(1717 749)" fill="#f30029"/>
    <circle id="Ellipse_11" data-name="Ellipse 11" cx="8" cy="8" r="8" transform="translate(1798 990)" fill="#f30029"/>
    <circle id="Ellipse_12" data-name="Ellipse 12" cx="12.5" cy="12.5" r="12.5" transform="translate(1759 914)" fill="#f30029"/>
    <path id="Polygon_1" data-name="Polygon 1" d="M99.462,163.437c28.22-63.146,117.857-63.146,146.077,0L294.662,273.36C318.311,326.279,279.587,386,221.624,386H123.376c-57.963,0-96.688-59.721-73.038-112.64Z" transform="translate(685 827)" fill="#f30029"/>
    <path id="Polygon_2" data-name="Polygon 2" d="M148.729,130.358c7.014-31.236,51.528-31.236,58.542,0l5.8,25.84A30,30,0,0,0,223.6,173.048l10.82,8.658c25.788,20.637,4.165,61.713-27.445,52.134L186.7,227.7a30,30,0,0,0-17.4,0l-20.275,6.144c-31.61,9.579-53.233-31.5-27.445-52.134l10.82-8.658A30,30,0,0,0,142.927,156.2Z" transform="translate(766 -168)" fill="#f30029"/>
  </g>
</svg>
